<mxfile host="app.diagrams.net" modified="2022-03-25T02:34:58.293Z" agent="5.0 (Macintosh; Intel Mac OS X 10_15_7) AppleWebKit/537.36 (KHTML, like Gecko) Chrome/99.0.4844.83 Safari/537.36" etag="PdAAWVrUOv2G2YbodF83" version="17.2.2" type="github">
  <diagram id="kgpKYQtTHZ0yAKxKKP6v" name="Page-1">
    <mxGraphModel dx="1426" dy="841" grid="1" gridSize="10" guides="1" tooltips="1" connect="1" arrows="1" fold="1" page="1" pageScale="1" pageWidth="850" pageHeight="1100" math="0" shadow="0">
      <root>
        <mxCell id="0" />
        <mxCell id="1" parent="0" />
        <mxCell id="3nuBFxr9cyL0pnOWT2aG-1" value="R8r Frontend" style="shape=umlLifeline;perimeter=lifelinePerimeter;container=1;collapsible=0;recursiveResize=0;rounded=0;shadow=0;strokeWidth=1;" parent="1" vertex="1">
          <mxGeometry x="110" y="80" width="110" height="360" as="geometry" />
        </mxCell>
        <mxCell id="3nuBFxr9cyL0pnOWT2aG-2" value="&#xa;&#xa;Valid " style="points=[];perimeter=orthogonalPerimeter;rounded=0;shadow=0;strokeWidth=1;" parent="3nuBFxr9cyL0pnOWT2aG-1" vertex="1">
          <mxGeometry x="20" y="70" width="45" height="290" as="geometry" />
        </mxCell>
        <mxCell id="3nuBFxr9cyL0pnOWT2aG-4" value="Frontend&#xa;Error" style="points=[];perimeter=orthogonalPerimeter;rounded=0;shadow=0;strokeWidth=1;" parent="3nuBFxr9cyL0pnOWT2aG-1" vertex="1">
          <mxGeometry x="50" y="120" width="60" height="80" as="geometry" />
        </mxCell>
        <mxCell id="3nuBFxr9cyL0pnOWT2aG-5" value="Validation " style="shape=umlLifeline;perimeter=lifelinePerimeter;container=1;collapsible=0;recursiveResize=0;rounded=0;shadow=0;strokeWidth=1;" parent="1" vertex="1">
          <mxGeometry x="270" y="80" width="220" height="360" as="geometry" />
        </mxCell>
        <mxCell id="3nuBFxr9cyL0pnOWT2aG-6" value="" style="points=[];perimeter=orthogonalPerimeter;rounded=0;shadow=0;strokeWidth=1;" parent="3nuBFxr9cyL0pnOWT2aG-5" vertex="1">
          <mxGeometry x="100" y="80" width="10" height="280" as="geometry" />
        </mxCell>
        <mxCell id="3v7QbDOpCOrtQCym61-p-9" value="Error Check and Router" style="whiteSpace=wrap;html=1;rounded=0;shadow=0;strokeWidth=1;" vertex="1" parent="3nuBFxr9cyL0pnOWT2aG-5">
          <mxGeometry x="35" y="260" width="100" height="30" as="geometry" />
        </mxCell>
        <mxCell id="3v7QbDOpCOrtQCym61-p-11" value="Login Failed" style="text;html=1;strokeColor=none;fillColor=none;align=center;verticalAlign=middle;whiteSpace=wrap;rounded=0;" vertex="1" parent="3nuBFxr9cyL0pnOWT2aG-5">
          <mxGeometry x="145" y="120" width="60" height="30" as="geometry" />
        </mxCell>
        <mxCell id="3v7QbDOpCOrtQCym61-p-15" value="Successful" style="text;html=1;strokeColor=none;fillColor=none;align=center;verticalAlign=middle;whiteSpace=wrap;rounded=0;" vertex="1" parent="3nuBFxr9cyL0pnOWT2aG-5">
          <mxGeometry x="132.5" y="320" width="60" height="30" as="geometry" />
        </mxCell>
        <mxCell id="3v7QbDOpCOrtQCym61-p-6" value="User Details Sent" style="text;html=1;strokeColor=none;fillColor=none;align=center;verticalAlign=middle;whiteSpace=wrap;rounded=0;" vertex="1" parent="3nuBFxr9cyL0pnOWT2aG-5">
          <mxGeometry x="132.5" y="70" width="105" height="30" as="geometry" />
        </mxCell>
        <mxCell id="3v7QbDOpCOrtQCym61-p-20" value="Too Many Attempts" style="text;html=1;strokeColor=none;fillColor=none;align=center;verticalAlign=middle;whiteSpace=wrap;rounded=0;" vertex="1" parent="3nuBFxr9cyL0pnOWT2aG-5">
          <mxGeometry x="120" y="170" width="110" height="30" as="geometry" />
        </mxCell>
        <mxCell id="3nuBFxr9cyL0pnOWT2aG-7" value="Return User Data" style="verticalAlign=bottom;endArrow=classic;endSize=8;exitX=0;exitY=0.95;shadow=0;strokeWidth=1;endFill=1;" parent="1" source="3nuBFxr9cyL0pnOWT2aG-6" target="3nuBFxr9cyL0pnOWT2aG-2" edge="1">
          <mxGeometry relative="1" as="geometry">
            <mxPoint x="275" y="236" as="targetPoint" />
          </mxGeometry>
        </mxCell>
        <mxCell id="3nuBFxr9cyL0pnOWT2aG-8" value="Validate Text Input" style="verticalAlign=bottom;endArrow=block;entryX=0;entryY=0;shadow=0;strokeWidth=1;" parent="1" source="3nuBFxr9cyL0pnOWT2aG-2" target="3nuBFxr9cyL0pnOWT2aG-6" edge="1">
          <mxGeometry relative="1" as="geometry">
            <mxPoint x="275" y="160" as="sourcePoint" />
          </mxGeometry>
        </mxCell>
        <mxCell id="3nuBFxr9cyL0pnOWT2aG-9" value="Callback - Invalid Input " style="verticalAlign=bottom;endArrow=block;entryX=1;entryY=0;shadow=0;strokeWidth=1;dashed=1;" parent="1" source="3nuBFxr9cyL0pnOWT2aG-6" target="3nuBFxr9cyL0pnOWT2aG-4" edge="1">
          <mxGeometry relative="1" as="geometry">
            <mxPoint x="240" y="200" as="sourcePoint" />
          </mxGeometry>
        </mxCell>
        <mxCell id="3nuBFxr9cyL0pnOWT2aG-10" value="Request User Data" style="verticalAlign=bottom;endArrow=classic;dashed=1;endSize=8;exitX=1;exitY=0.95;shadow=0;strokeWidth=1;endFill=1;" parent="1" source="3nuBFxr9cyL0pnOWT2aG-4" target="3nuBFxr9cyL0pnOWT2aG-6" edge="1">
          <mxGeometry relative="1" as="geometry">
            <mxPoint x="240" y="257" as="targetPoint" />
          </mxGeometry>
        </mxCell>
        <mxCell id="3v7QbDOpCOrtQCym61-p-1" value="R8r Backend" style="shape=umlLifeline;perimeter=lifelinePerimeter;container=1;collapsible=0;recursiveResize=0;rounded=0;shadow=0;strokeWidth=1;" vertex="1" parent="1">
          <mxGeometry x="510" y="80" width="100" height="390" as="geometry" />
        </mxCell>
        <mxCell id="3v7QbDOpCOrtQCym61-p-2" value="" style="points=[];perimeter=orthogonalPerimeter;rounded=0;shadow=0;strokeWidth=1;" vertex="1" parent="3v7QbDOpCOrtQCym61-p-1">
          <mxGeometry x="27.5" y="70" width="45" height="290" as="geometry" />
        </mxCell>
        <mxCell id="3v7QbDOpCOrtQCym61-p-4" value="Login &#xa;Denied " style="points=[];perimeter=orthogonalPerimeter;rounded=0;shadow=0;strokeWidth=1;" vertex="1" parent="3v7QbDOpCOrtQCym61-p-1">
          <mxGeometry y="110" width="50" height="100" as="geometry" />
        </mxCell>
        <mxCell id="3v7QbDOpCOrtQCym61-p-5" value="" style="endArrow=classic;html=1;rounded=0;" edge="1" parent="1">
          <mxGeometry width="50" height="50" relative="1" as="geometry">
            <mxPoint x="380" y="180" as="sourcePoint" />
            <mxPoint x="540" y="180" as="targetPoint" />
            <Array as="points">
              <mxPoint x="440" y="180" />
            </Array>
          </mxGeometry>
        </mxCell>
        <mxCell id="3v7QbDOpCOrtQCym61-p-8" value="" style="endArrow=classic;html=1;rounded=0;dashed=1;exitX=-0.06;exitY=0.394;exitDx=0;exitDy=0;exitPerimeter=0;" edge="1" parent="1" source="3v7QbDOpCOrtQCym61-p-4" target="3nuBFxr9cyL0pnOWT2aG-5">
          <mxGeometry width="50" height="50" relative="1" as="geometry">
            <mxPoint x="400" y="430" as="sourcePoint" />
            <mxPoint x="450" y="380" as="targetPoint" />
          </mxGeometry>
        </mxCell>
        <mxCell id="3v7QbDOpCOrtQCym61-p-13" value="" style="endArrow=classic;html=1;rounded=0;" edge="1" parent="1" target="3nuBFxr9cyL0pnOWT2aG-6">
          <mxGeometry width="50" height="50" relative="1" as="geometry">
            <mxPoint x="540" y="430" as="sourcePoint" />
            <mxPoint x="450" y="360" as="targetPoint" />
            <Array as="points">
              <mxPoint x="490" y="430" />
            </Array>
          </mxGeometry>
        </mxCell>
        <mxCell id="3v7QbDOpCOrtQCym61-p-17" value="" style="endArrow=classic;html=1;rounded=0;entryX=1;entryY=0.418;entryDx=0;entryDy=0;entryPerimeter=0;dashed=1;" edge="1" parent="1" source="3v7QbDOpCOrtQCym61-p-4" target="3nuBFxr9cyL0pnOWT2aG-6">
          <mxGeometry width="50" height="50" relative="1" as="geometry">
            <mxPoint x="400" y="400" as="sourcePoint" />
            <mxPoint x="450" y="350" as="targetPoint" />
          </mxGeometry>
        </mxCell>
        <mxCell id="3v7QbDOpCOrtQCym61-p-23" value="R8r Frontend" style="whiteSpace=wrap;html=1;rounded=0;shadow=0;strokeWidth=1;" vertex="1" parent="1">
          <mxGeometry x="103.75" y="480" width="97.5" height="30" as="geometry" />
        </mxCell>
        <mxCell id="3v7QbDOpCOrtQCym61-p-24" value="" style="edgeStyle=orthogonalEdgeStyle;rounded=0;orthogonalLoop=1;jettySize=auto;html=1;dashed=1;strokeColor=default;endArrow=none;endFill=0;" edge="1" parent="1" source="3nuBFxr9cyL0pnOWT2aG-2" target="3v7QbDOpCOrtQCym61-p-23">
          <mxGeometry relative="1" as="geometry" />
        </mxCell>
        <mxCell id="3v7QbDOpCOrtQCym61-p-25" value="Validation" style="rounded=0;whiteSpace=wrap;html=1;shadow=0;strokeWidth=1;" vertex="1" parent="1">
          <mxGeometry x="317.5" y="480" width="115" height="30" as="geometry" />
        </mxCell>
        <mxCell id="3v7QbDOpCOrtQCym61-p-26" value="" style="edgeStyle=orthogonalEdgeStyle;rounded=0;orthogonalLoop=1;jettySize=auto;html=1;dashed=1;endArrow=none;endFill=0;strokeColor=default;" edge="1" parent="1" source="3nuBFxr9cyL0pnOWT2aG-6" target="3v7QbDOpCOrtQCym61-p-25">
          <mxGeometry relative="1" as="geometry" />
        </mxCell>
        <mxCell id="3v7QbDOpCOrtQCym61-p-27" value="R8r Backend" style="whiteSpace=wrap;html=1;rounded=0;shadow=0;strokeWidth=1;" vertex="1" parent="1">
          <mxGeometry x="515" y="480" width="90" height="30" as="geometry" />
        </mxCell>
        <mxCell id="3v7QbDOpCOrtQCym61-p-28" value="" style="edgeStyle=orthogonalEdgeStyle;rounded=0;orthogonalLoop=1;jettySize=auto;html=1;dashed=1;endArrow=none;endFill=0;strokeColor=default;" edge="1" parent="1" source="3v7QbDOpCOrtQCym61-p-2" target="3v7QbDOpCOrtQCym61-p-27">
          <mxGeometry relative="1" as="geometry" />
        </mxCell>
      </root>
    </mxGraphModel>
  </diagram>
</mxfile>
